<?xml version="1.0" encoding="utf-8"?>
<!-- Generator: Adobe Illustrator 19.2.0, SVG Export Plug-In . SVG Version: 6.00 Build 0)  -->
<svg version="1.1" id="Layer_1" xmlns="http://www.w3.org/2000/svg" xmlns:xlink="http://www.w3.org/1999/xlink" x="0px" y="0px"
	 viewBox="0 0 300.2 300.2" style="enable-background:new 0 0 300.2 300.2;" xml:space="preserve">
<style type="text/css">
	.st0{fill:#FFFFFF;}
	.st1{fill:#1B9BD7;}
	.st2{fill:#159E4A;}
	.st3{fill:#E81C0C;}
	.st4{fill:#E80C65;}
	.st5{fill:#FF00E7;}
	.st6{fill:#B70CE8;}
	.st7{fill:#870DFF;}
	.st8{fill:#0CE856;}
	.st9{fill:#00FF0E;}
	.st10{fill:#4AE80C;}
	.st11{fill:#A6FF0D;}
	.st12{fill:#0D1CFF;}
	.st13{fill:#0C54E8;}
	.st14{fill:#0097FF;}
	.st15{fill:#0CC8E8;}
	.st16{fill:#0DFFE1;}
	.st17{fill:#FFCB0D;}
	.st18{fill:#E8A20C;}
	.st19{fill:#FF9400;}
	.st20{fill:#E86C0C;}
	.st21{fill:#FF130D;}
	.st22{fill:#23FF00;}
	.st23{fill:#333333;}
	.st24{fill:#FF0D0D;}
	.st25{fill:#E80C7A;}
	.st26{fill:#FF00FF;}
	.st27{fill:#AC0CE8;}
	.st28{fill:#7B0DFF;}
	.st29{fill:#7F267F;}
	.st30{fill:#CC00CC;}
	.st31{fill:#FF4CFF;}
	.st32{fill:#7F007F;}
	.st33{fill:#682547;}
	.st34{fill:#B5095F;}
	.st35{fill:#7F2D2D;}
	.st36{fill:#CC0A0A;}
	.st37{fill:#522D7F;}
	.st38{fill:#620ACC;}
	.st39{fill:#562568;}
	.st40{fill:#8609B5;}
	.st41{fill:#3D067F;}
	.st42{fill:#A559FF;}
	.st43{fill:#4D0568;}
	.st44{fill:#C253EC;}
	.st45{fill:#680537;}
	.st46{fill:#EC539F;}
	.st47{fill:#7F0606;}
	.st48{fill:#FF5959;}
	.st49{fill:none;}
</style>
<g>
	<polygon class="st42" points="150.1,26.1 150.1,88.1 96.4,57.1 	"/>
	<polygon class="st28" points="203.8,57.1 150.1,88.1 150.1,26.1 	"/>
	<polygon class="st37" points="203.8,57.1 203.8,119.1 150.1,88.1 	"/>
	<polygon class="st38" points="257.5,88.1 203.8,119.1 203.8,57.1 	"/>
	<polygon class="st39" points="96.4,57.1 96.4,119.1 42.7,88.1 	"/>
	<polygon class="st40" points="150.1,88.1 96.4,119.1 96.4,57.1 	"/>
	<polygon class="st35" points="257.5,88.1 257.5,150.1 203.8,119.1 	"/>
	<polygon class="st27" points="96.4,119.1 42.7,150.1 42.7,88.1 	"/>
	<polygon class="st36" points="257.5,150.1 203.8,181.1 203.8,119.1 	"/>
	<polygon class="st46" points="257.5,150.1 257.5,212.1 203.8,181.1 	"/>
	<polygon class="st44" points="96.4,119.1 96.4,181.1 42.7,150.1 	"/>
	<polygon class="st30" points="96.4,181.1 42.7,212.1 42.7,150.1 	"/>
	<polygon class="st31" points="150.1,212.1 150.1,274.1 96.4,243.1 	"/>
	<polygon class="st34" points="203.8,243.1 150.1,274.1 150.1,212.1 	"/>
	<polygon class="st33" points="203.8,181.1 203.8,243.1 150.1,212.1 	"/>
	<polygon class="st25" points="257.5,212.1 203.8,243.1 203.8,181.1 	"/>
	<polygon class="st29" points="96.4,181.1 96.4,243.1 42.7,212.1 	"/>
	<polygon class="st26" points="150.1,212.1 96.4,243.1 96.4,181.1 	"/>
</g>
</svg>
