<svg id="a3c12310-1381-48b3-be76-d1081e22b845" data-name="Layer 1" xmlns="http://www.w3.org/2000/svg" viewBox="0 0 959.76 300.24"><defs><style>.c7488e03-823a-4853-a636-8f3a45c2a381{fill:#a559ff;}.\34 5cdaeb5-5c91-487f-a138-573e4c0af36f{fill:#7b0dff;}.a5ab618d-c105-4716-a1ea-65984a157f75{fill:#522d7f;}.\36 4a5fd5e-13ac-480d-9d6b-cd6ada2f3706{fill:#620acc;}.e3c30394-7296-4b17-88b6-f111bbc5a568{fill:#562568;}.\39 44087cd-b374-498a-a6eb-eca3ed01e662{fill:#8609b5;}.b02bb3b0-cce7-4d7f-839e-54042b64d66a{fill:#7f2d2d;}.b620374e-975d-4726-a20a-999d552173fb{fill:#ac0ce8;}.ac03d8b1-eebb-4b21-8f52-d1d4b67c0353{fill:#cc0a0a;}.\35 27b400a-86f9-4b96-8bdf-894bb6754b54{fill:#ec539f;}.\38 3ad495d-bd3e-49d4-9cbd-84baa1ec6aca{fill:#c253ec;}.f348b352-7269-408a-8ca6-ca5781e7696c{fill:#c0c;}.d0edd9c6-553d-4b33-aed0-948695fafaac{fill:#ff4cff;}.\35 882c5fd-0aab-44b5-aec6-0a29699259ab{fill:#b5095f;}.\32 7f9305e-f4a3-4f25-b88d-d603387cae94{fill:#682547;}.a5568030-3948-4959-8500-bfee95f9db1e{fill:#e80c7a;}.\39 eeb7117-9535-4701-9527-fbe7a31b7d19{fill:#7f267f;}.\34 2ac0e39-0be6-4edd-bf1e-cc30c27b3b4a{fill:#f0f;}.e11d88e0-9df5-4861-81b3-0036ca135b19{fill:#333;}</style></defs><title>classpip</title><polygon class="c7488e03-823a-4853-a636-8f3a45c2a381" points="134.04 22.87 134.04 86.5 78.94 54.68 134.04 22.87"/><polygon class="45cdaeb5-5c91-487f-a138-573e4c0af36f" points="189.14 54.68 134.04 86.5 134.04 22.87 189.14 54.68"/><polygon class="a5ab618d-c105-4716-a1ea-65984a157f75" points="189.15 54.68 189.15 118.31 134.05 86.5 189.15 54.68"/><polygon class="64a5fd5e-13ac-480d-9d6b-cd6ada2f3706" points="244.25 86.5 189.15 118.31 189.15 54.68 244.25 86.5"/><polygon class="e3c30394-7296-4b17-88b6-f111bbc5a568" points="78.95 54.68 78.95 118.31 23.85 86.5 78.95 54.68"/><polygon class="944087cd-b374-498a-a6eb-eca3ed01e662" points="134.05 86.5 78.95 118.31 78.95 54.68 134.05 86.5"/><polygon class="b02bb3b0-cce7-4d7f-839e-54042b64d66a" points="244.25 86.5 244.25 150.12 189.15 118.31 244.25 86.5"/><polygon class="b620374e-975d-4726-a20a-999d552173fb" points="78.95 118.31 23.85 150.12 23.85 86.5 78.95 118.31"/><polygon class="ac03d8b1-eebb-4b21-8f52-d1d4b67c0353" points="244.25 150.12 189.15 181.93 189.15 118.31 244.25 150.12"/><polygon class="527b400a-86f9-4b96-8bdf-894bb6754b54" points="244.25 150.12 244.25 213.75 189.15 181.93 244.25 150.12"/><polygon class="83ad495d-bd3e-49d4-9cbd-84baa1ec6aca" points="78.95 118.31 78.95 181.93 23.85 150.12 78.95 118.31"/><polygon class="f348b352-7269-408a-8ca6-ca5781e7696c" points="78.95 181.93 23.85 213.75 23.85 150.12 78.95 181.93"/><polygon class="d0edd9c6-553d-4b33-aed0-948695fafaac" points="134.05 213.75 134.05 277.37 78.95 245.56 134.05 213.75"/><polygon class="5882c5fd-0aab-44b5-aec6-0a29699259ab" points="189.15 245.56 134.05 277.37 134.05 213.75 189.15 245.56"/><polygon class="27f9305e-f4a3-4f25-b88d-d603387cae94" points="189.15 181.93 189.15 245.56 134.05 213.75 189.15 181.93"/><polygon class="a5568030-3948-4959-8500-bfee95f9db1e" points="244.25 213.75 189.15 245.56 189.15 181.93 244.25 213.75"/><polygon class="9eeb7117-9535-4701-9527-fbe7a31b7d19" points="78.95 181.93 78.95 245.56 23.85 213.75 78.95 181.93"/><polygon class="42ac0e39-0be6-4edd-bf1e-cc30c27b3b4a" points="134.05 213.75 78.95 245.56 78.95 181.93 134.05 213.75"/><path class="e11d88e0-9df5-4861-81b3-0036ca135b19" d="M403.21,127l-9.76,11.46c-5.73-5.88-13.63-9.45-23.54-9.29-14.25,0-24.47,10.68-24.47,26.33s10.22,26.33,24.47,26.33c10.38,0,18.74-3.41,24.31-9.91l9.91,9.91c-7.43,9.76-19.36,15.33-35,15.33-24.47,0-41.5-16.88-41.5-41.66,0-24.93,17-42,41.5-42C384,113.5,395.62,118.3,403.21,127Z"/><path class="e11d88e0-9df5-4861-81b3-0036ca135b19" d="M423.49,196.51V81.6H441.3V196.51H423.49Z"/><path class="e11d88e0-9df5-4861-81b3-0036ca135b19" d="M517.8,186.44c-5.88,7.28-15.33,10.84-27.26,10.84-17.81,0-29-11-29-25.55,0-15,11.3-24.62,31.13-24.78h24.93v-2.48c0-10.38-6.66-16.57-19.67-16.57-7.9,0-16.11,2.79-24.31,8.36l-7.28-12.39c11.46-6.81,19.82-10.38,35.46-10.38,21.22,0,33.14,10.84,33.29,29l0.16,54H517.8V186.44Zm-0.16-18.89V160h-22.3c-11.62,0-17,3.1-17,11,0,7.43,6,12.23,16,12.23C507,183.19,516.72,176.53,517.65,167.55Z"/><path class="e11d88e0-9df5-4861-81b3-0036ca135b19" d="M612.58,121.71l-6.5,13.16c-7.28-4.49-16.42-7.28-23.69-7.28-7,0-12.08,2.32-12.08,8.21,0,15.18,43.83,7,43.67,36.86,0,16.88-15,24.47-31.59,24.47-12.08,0-24.93-4-33.14-11.46l6.35-12.7c7.12,6.35,18.58,10.22,27.57,10.22,7.59,0,13.47-2.63,13.47-8.83,0-16.88-43.36-7.43-43.21-37.17,0-16.73,14.56-23.85,30.35-23.85C594.15,113.35,605.14,116.44,612.58,121.71Z"/><path class="e11d88e0-9df5-4861-81b3-0036ca135b19" d="M685.36,121.71l-6.5,13.16c-7.28-4.49-16.42-7.28-23.69-7.28-7,0-12.08,2.32-12.08,8.21,0,15.18,43.83,7,43.67,36.86,0,16.88-15,24.47-31.59,24.47-12.08,0-24.93-4-33.14-11.46l6.35-12.7c7.12,6.35,18.58,10.22,27.57,10.22,7.59,0,13.47-2.63,13.47-8.83,0-16.88-43.36-7.43-43.21-37.17,0-16.73,14.56-23.85,30.35-23.85C666.93,113.35,677.93,116.44,685.36,121.71Z"/><path class="e11d88e0-9df5-4861-81b3-0036ca135b19" d="M787.1,156.55c0,23.07-16.42,40-38.87,40-16.73,0-30-9.29-35.77-23.54v53.58h-3.1V116.44h3.1V140c5.73-14.25,19-23.54,35.77-23.54C770.68,116.44,787.1,133.32,787.1,156.55Zm-3.1,0c0-21.37-15-37-35.77-37s-35.77,15.64-35.77,37,15,36.86,35.77,36.86S784,177.92,784,156.55Z"/><path class="e11d88e0-9df5-4861-81b3-0036ca135b19" d="M817.76,93.37a4,4,0,1,1-4-4A4.1,4.1,0,0,1,817.76,93.37Zm-5.57,103.14V116.44h3.1v80.06h-3.1Z"/><path class="e11d88e0-9df5-4861-81b3-0036ca135b19" d="M927.86,156.55c0,23.07-16.42,40-38.87,40-16.73,0-30-9.29-35.77-23.54v53.58h-3.1V116.44h3.1V140c5.73-14.25,19-23.54,35.77-23.54C911.45,116.44,927.86,133.32,927.86,156.55Zm-3.1,0c0-21.37-15-37-35.77-37s-35.77,15.64-35.77,37,15,36.86,35.77,36.86S924.77,177.92,924.77,156.55Z"/></svg>